inDegrees=yes
name=ik_Xsens_3
DataType=double
version=3
OpenSimVersion=4.4-2022-07-23-0e9fedc
endheader
time	pelvis_tilt	pelvis_list	pelvis_rotation	pelvis_tx	pelvis_ty	pelvis_tz	hip_flexion_r	hip_adduction_r	hip_rotation_r	knee_angle_r	knee_angle_r_beta	ankle_angle_r	subtalar_angle_r	mtp_angle_r	hip_flexion_l	hip_adduction_l	hip_rotation_l	knee_angle_l	knee_angle_l_beta	ankle_angle_l	subtalar_angle_l	mtp_angle_l	lumbar_extension	lumbar_bending	lumbar_rotation	arm_flex_r	arm_add_r	arm_rot_r	elbow_flex_r	pro_sup_r	wrist_flex_r	wrist_dev_r	arm_flex_l	arm_add_l	arm_rot_l	elbow_flex_l	pro_sup_l	wrist_flex_l	wrist_dev_l
38.18333333333333	-2.920878172298238e-55	0	-1.369161643264799e-56	0	0.93	0	2.297072062796848e-49	1.083413928209726e-122	0	1.213285324654967e-20	-2.620770257593753e-23	-4.120170949172048e-92	0	0	2.297072062796848e-49	1.083413928209726e-122	0	1.213285324654967e-20	-2.620770257593753e-23	-4.120170949172048e-92	0	0	-2.920878172298238e-55	0	-1.369161643264799e-56	-1.934961931467659e-13	-0.0001623889485788152	-7.956076625640456e-05	-9.778494889280215e-05	-0.0001099637763720924	0	4.563872144215996e-57	60.09472416230972	-117.4962377794808	28.8758139897118	-28.39060254259674	18.61393465775742	0	4.563872144215996e-57
38.2	0	0	8.620910738379216e-35	0	0.93	0	-1.342836128560887e-35	2.935470984560503e-142	0	0	5.877471754111438e-39	-4.078973318653707e-96	0	0	-1.342836128560887e-35	2.935470984560503e-142	0	0	5.877471754111438e-39	-4.078973318653707e-96	0	0	0	0	8.620910738379216e-35	-1.934961931467659e-13	-0.0001623889485788152	-7.956076625640456e-05	-9.778494889280215e-05	-0.0001099637763720924	0	1.320024964192667e-37	60.11117348418099	-117.5013913453157	28.87278980709295	-28.41632245692189	18.61927661595752	0	1.320024964192667e-37
38.21666666666667	-7.112251359162853e-34	0	-3.09728632558846e-35	0	0.93	0	-2.901314973508679e-38	1.077613842297402e-35	0	0	5.877471754111438e-39	-4.038187623654911e-100	0	0	-2.901314973508679e-38	1.077613842297402e-35	0	0	5.877471754111438e-39	-4.038187623654911e-100	0	0	-7.112251359162853e-34	0	-3.09728632558846e-35	-1.934961931467659e-13	-0.0001623889485788152	-7.956076625640456e-05	-9.778494889280215e-05	-0.0001099637763720924	0	5.388082279747223e-36	60.12960509965496	-117.5096524434893	28.86340898936518	-28.43837381828957	18.61533960445265	0	5.388082279747223e-36
38.23333333333333	-1.98240431227909e-34	1.025101214630761e-34	0	0	0.93	0	0	0	0	0	0	0	0	0	0	0	0	0	0	0	0	0	0	0	0	4.677168437360719e-14	-0.0001623889513697071	-7.956076880990901e-05	-9.778494941213402e-05	-0.0001099637752472745	0	0	60.14385546332009	-117.519513557331	28.85448140983268	-28.45539368052233	18.60841144801274	0	-4.041051908615258e-36
38.25	0	0	-1.885824224020454e-35	0	0.93	0	1.45402172724719e-37	0	0	0	0	0	0	0	1.45402172724719e-37	0	0	0	0	0	0	0	0	0	-1.885824224020454e-35	4.677168437360719e-14	-0.0001623889513697071	-7.956076880990901e-05	-9.778494941213402e-05	-0.0001099637752472745	0	-5.657925283532511e-38	60.15655070527316	-117.52969992081	28.84856897979699	-28.47437389759209	18.60474085497867	0	-5.697931737433673e-38
38.26666666666667	-4.310455369205289e-35	8.519884440659914e-35	2.155040987809929e-35	0	0.93	0	-3.136139688195287e-38	0	0	0	0	-1.332186918424318e-37	0	0	-3.136139688195287e-38	0	0	0	0	-1.332186918424318e-37	0	0	-4.310455369205289e-35	8.519884440659914e-35	2.155040987809929e-35	4.677168437360719e-14	-0.0001623889513697071	-7.956076880990901e-05	-9.778494941213402e-05	-0.0001099637752472745	0	-5.601351632049543e-42	60.16111627967538	-117.5270382727512	28.85719477712117	-28.49203106725221	18.62184113372518	0	-5.640958061017469e-42
38.28333333333333	-4.267355082868387e-39	8.434694030947528e-39	2.648343800165021e-31	0	0.93	0	1.608170535085963e-34	0	0	2.426570649309934e-20	5.255021083041132e-23	1.297785814628535e-34	0	0	1.608170535085963e-34	0	0	2.426570649309934e-20	5.255021083041132e-23	1.297785814628535e-34	0	0	-4.267355082868387e-39	8.434694030947528e-39	2.648343800165021e-31	4.677168437360719e-14	-0.0001623889513697071	-7.956076880990901e-05	-9.778494941213402e-05	-0.0001099637752472745	0	-1.400897994992167e-34	60.16532183083557	-117.5267226207363	28.86361234646584	-28.50751563060646	18.63441786183139	0	-1.400897994992207e-34
38.3	-2.139315067601248e-58	4.278630135202496e-58	9.571133594986865e-51	0	0.93	0	4.594144125593695e-49	0	0	2.426570649309934e-20	1.049656159822871e-22	4.67340507567718e-54	0	0	4.594144125593695e-49	0	0	2.426570649309934e-20	1.049656159822871e-22	4.67340507567718e-54	0	0	-2.139315067601248e-58	4.278630135202496e-58	9.571133594986865e-51	4.677168437360719e-14	-0.0001623889513697071	-7.956076880990901e-05	-9.778494941213402e-05	-0.0001099637752472745	0	-7.01010761351577e-54	60.17347652022845	-117.528085165437	28.85866360377158	-28.51459131096606	18.63236780246815	0	-7.01010761351577e-54
38.31666666666666	-2.117924034849302e-62	-8.827812596100313e-32	9.475431734468818e-55	0	0.93	0	3.039202279769042e-35	0	0	2.426570649309934e-20	5.260530761588886e-23	4.626675651596103e-58	0	0	3.039202279769042e-35	0	0	2.426570649309934e-20	5.260530761588886e-23	4.626675651596103e-58	0	0	-2.117924034849302e-62	-8.827812596100313e-32	9.475431734468818e-55	4.677168437360719e-14	-0.0001623889513697071	-7.956076880990901e-05	-9.778494941213402e-05	-0.0001099637752472745	0	-6.940013477394194e-58	60.17820293587837	-117.5243747593261	28.86527262905731	-28.52887157816149	18.64684674815333	0	-6.940013477394194e-58
